<svg xmlns="http://www.w3.org/2000/svg" viewBox="0 0 390 844" preserveAspectRatio="xMidYMid slice"><defs><filter id="stone" x="-20%" y="-20%" width="140%" height="140%"><feTurbulence type="fractalNoise" baseFrequency=".035 .09" numOctaves="4" seed="17" result="noise"/><feColorMatrix in="noise" type="matrix" values=".32 0 0 0 .68 .27 0 0 0 .62 .20 0 0 0 .52 0 0 0 .18 0"/><feBlend in="SourceGraphic" mode="multiply"/></filter><filter id="grain"><feTurbulence type="fractalNoise" baseFrequency=".7" numOctaves="2" seed="9"/><feColorMatrix type="saturate" values="0"/><feComponentTransfer><feFuncA type="table" tableValues="0 .055"/></feComponentTransfer></filter><radialGradient id="wash" cx="30%" cy="30%" r="80%"><stop offset="0" stop-color="#fbf4e8"/><stop offset=".62" stop-color="#f2e6d7"/><stop offset="1" stop-color="#e7d8c6"/></radialGradient></defs><rect width="390" height="844" fill="url(#wash)" filter="url(#stone)"/><rect width="390" height="844" filter="url(#grain)" opacity=".65"/><g opacity=".22" fill="#9a6f4c"><circle cx="18" cy="104" r="1.2"/><circle cx="54" cy="75" r=".8"/><circle cx="92" cy="134" r="1"/><circle cx="45" cy="228" r="1.3"/><circle cx="128" cy="196" r=".7"/><circle cx="330" cy="395" r="1"/><circle cx="300" cy="515" r=".8"/><circle cx="70" cy="590" r="1.1"/><circle cx="350" cy="690" r="1.2"/><circle cx="160" cy="760" r=".8"/></g><g opacity=".15" stroke="#9a6f4c" fill="none"><path d="M4 324c48-11 91-4 133 2"/><path d="M260 608c52-12 88-7 126-2"/><path d="M25 710c44 7 78 5 118-4"/></g></svg>